<?xml version="1.0" encoding="UTF-8"?>
<svg xmlns="http://www.w3.org/2000/svg" xmlns:xlink="http://www.w3.org/1999/xlink" width="48pt" height="48pt" viewBox="0 0 48 48" version="1.1">
<g id="surface1">
<path style=" stroke:none;fill-rule:nonzero;fill:rgb(100%,100%,100%);fill-opacity:1;" d="M 28.351562 23.996094 L 43.613281 8.738281 C 44.816406 7.535156 44.816406 5.585938 43.613281 4.386719 C 42.410156 3.183594 40.464844 3.183594 39.261719 4.386719 L 23.996094 19.644531 L 8.738281 4.386719 C 7.535156 3.183594 5.589844 3.183594 4.386719 4.386719 C 3.183594 5.585938 3.183594 7.535156 4.386719 8.738281 L 19.644531 23.996094 L 4.386719 39.261719 C 3.183594 40.460938 3.183594 42.410156 4.386719 43.613281 C 4.984375 44.214844 5.773438 44.515625 6.5625 44.515625 C 7.347656 44.515625 8.136719 44.214844 8.738281 43.613281 L 23.996094 28.351562 L 39.261719 43.613281 C 39.863281 44.214844 40.648438 44.515625 41.4375 44.515625 C 42.222656 44.515625 43.011719 44.214844 43.613281 43.613281 C 44.816406 42.410156 44.816406 40.464844 43.613281 39.261719 Z M 28.351562 23.996094 "/>
</g>
</svg>
