<?xml version="1.0" encoding="UTF-8"?>
<svg xmlns="http://www.w3.org/2000/svg" xmlns:xlink="http://www.w3.org/1999/xlink" width="48pt" height="48pt" viewBox="0 0 48 48" version="1.1">
<g id="surface1">
<path style=" stroke:none;fill-rule:nonzero;fill:rgb(69.803922%,69.803922%,83.137255%);fill-opacity:1;" d="M 46.605469 23.351562 C 43.664062 19.484375 40.648438 16.410156 37.574219 14.105469 L 40.015625 11.789062 C 40.886719 10.964844 40.921875 9.585938 40.09375 8.714844 C 39.265625 7.839844 37.886719 7.804688 37.015625 8.632812 L 33.804688 11.683594 C 30.535156 9.9375 27.203125 9.054688 23.832031 9.054688 C 10.40625 9.054688 1.644531 22.929688 1.277344 23.519531 C 0.800781 24.292969 0.851562 25.285156 1.40625 26.003906 C 4.125 29.503906 6.90625 32.351562 9.742188 34.542969 L 7.988281 36.207031 C 7.117188 37.035156 7.082031 38.414062 7.910156 39.285156 C 8.339844 39.738281 8.914062 39.964844 9.488281 39.964844 C 10.027344 39.964844 10.566406 39.765625 10.988281 39.367188 L 13.46875 37.011719 C 16.957031 38.96875 20.519531 39.964844 24.132812 39.964844 C 37.15625 39.964844 47.046875 26.441406 47.046875 24.667969 C 47.046875 24.191406 46.890625 23.730469 46.605469 23.351562 Z M 5.839844 24.578125 C 8.160156 21.433594 14.953125 13.40625 23.832031 13.40625 C 26.03125 13.40625 28.234375 13.90625 30.4375 14.882812 L 28.253906 16.957031 C 26.996094 16.246094 25.546875 15.835938 24.003906 15.835938 C 19.222656 15.835938 15.328125 19.726562 15.328125 24.511719 C 15.328125 25.898438 15.664062 27.199219 16.246094 28.363281 L 12.945312 31.5 C 10.5625 29.746094 8.191406 27.441406 5.839844 24.578125 Z M 28.324219 24.507812 C 28.324219 26.890625 26.386719 28.828125 24.003906 28.828125 C 23.441406 28.828125 22.902344 28.714844 22.410156 28.515625 L 28.074219 23.132812 C 28.222656 23.566406 28.324219 24.023438 28.324219 24.507812 Z M 19.683594 24.507812 C 19.683594 22.128906 21.621094 20.191406 24.003906 20.191406 C 24.265625 20.191406 24.519531 20.222656 24.769531 20.269531 L 19.738281 25.046875 C 19.714844 24.867188 19.683594 24.691406 19.683594 24.507812 Z M 24.132812 35.609375 C 21.6875 35.609375 19.242188 35.011719 16.804688 33.839844 L 19.101562 31.65625 C 20.496094 32.617188 22.183594 33.183594 24.003906 33.183594 C 28.785156 33.183594 32.675781 29.289062 32.675781 24.507812 C 32.675781 22.851562 32.199219 21.304688 31.386719 19.984375 L 34.371094 17.148438 C 36.980469 18.996094 39.578125 21.523438 42.152344 24.726562 C 39.820312 27.804688 33.027344 35.609375 24.132812 35.609375 Z M 24.132812 35.609375 "/>
</g>
</svg>
