<?xml version="1.0" encoding="UTF-8"?>
<svg xmlns="http://www.w3.org/2000/svg" xmlns:xlink="http://www.w3.org/1999/xlink" width="48pt" height="48pt" viewBox="0 0 48 48" version="1.1">
<g id="surface1">
<path style=" stroke:none;fill-rule:nonzero;fill:rgb(100%,100%,100%);fill-opacity:1;" d="M 24.03125 47.871094 C 22.328125 47.871094 21.03125 46.570312 21.03125 44.871094 L 21.03125 3.070312 C 21.03125 1.371094 22.328125 0.0703125 24.03125 0.0703125 C 25.730469 0.0703125 27.03125 1.371094 27.03125 3.070312 L 27.03125 44.871094 C 27.03125 46.570312 25.730469 47.871094 24.03125 47.871094 Z M 24.03125 47.871094 "/>
<path style=" stroke:none;fill-rule:nonzero;fill:rgb(100%,100%,100%);fill-opacity:1;" d="M 44.929688 26.972656 L 3.128906 26.972656 C 1.429688 26.972656 0.128906 25.671875 0.128906 23.972656 C 0.128906 22.269531 1.429688 20.972656 3.128906 20.972656 L 44.929688 20.972656 C 46.628906 20.972656 47.929688 22.269531 47.929688 23.972656 C 47.929688 25.671875 46.628906 26.972656 44.929688 26.972656 Z M 44.929688 26.972656 "/>
</g>
</svg>
