<?xml version="1.0" encoding="UTF-8"?>
<svg xmlns="http://www.w3.org/2000/svg" xmlns:xlink="http://www.w3.org/1999/xlink" width="48pt" height="48pt" viewBox="0 0 48 48" version="1.1">
<g id="surface1">
<path style=" stroke:none;fill-rule:nonzero;fill:rgb(0%,0%,0%);fill-opacity:1;" d="M 41.613281 18.433594 C 40.675781 18.433594 39.910156 17.671875 39.910156 16.730469 L 39.910156 10.746094 C 39.910156 9.28125 38.722656 8.089844 37.257812 8.089844 L 30.152344 8.089844 C 29.210938 8.089844 28.449219 7.328125 28.449219 6.386719 C 28.449219 5.449219 29.210938 4.6875 30.152344 4.6875 L 37.257812 4.6875 C 40.597656 4.6875 43.316406 7.40625 43.316406 10.746094 L 43.316406 16.730469 C 43.3125 17.671875 42.554688 18.433594 41.613281 18.433594 Z M 41.613281 18.433594 "/>
<path style=" stroke:none;fill-rule:nonzero;fill:rgb(0%,0%,0%);fill-opacity:1;" d="M 6.386719 18.433594 C 5.449219 18.433594 4.6875 17.671875 4.6875 16.730469 L 4.6875 10.746094 C 4.867188 7.296875 7.628906 4.6875 10.980469 4.6875 C 11 4.6875 11.019531 4.6875 11.039062 4.6875 L 17.847656 4.6875 C 18.789062 4.6875 19.550781 5.449219 19.550781 6.386719 C 19.550781 7.328125 18.785156 8.089844 17.847656 8.089844 L 11.023438 8.089844 C 11.015625 8.089844 11.007812 8.089844 10.996094 8.089844 C 9.4375 8.089844 8.167969 9.289062 8.085938 10.835938 L 8.089844 16.730469 C 8.089844 17.671875 7.328125 18.433594 6.386719 18.433594 Z M 6.386719 18.433594 "/>
<path style=" stroke:none;fill-rule:nonzero;fill:rgb(0%,0%,0%);fill-opacity:1;" d="M 30.148438 43.3125 C 29.210938 43.3125 28.449219 42.550781 28.449219 41.609375 C 28.449219 40.671875 29.210938 39.910156 30.148438 39.910156 L 37.253906 39.910156 C 38.71875 39.828125 39.925781 38.546875 39.910156 36.992188 L 39.910156 31.269531 C 39.910156 30.328125 40.671875 29.566406 41.613281 29.566406 C 42.550781 29.566406 43.3125 30.328125 43.3125 31.269531 L 43.3125 36.976562 C 43.34375 40.34375 40.722656 43.132812 37.34375 43.308594 Z M 30.148438 43.3125 "/>
<path style=" stroke:none;fill-rule:nonzero;fill:rgb(0%,0%,0%);fill-opacity:1;" d="M 17.847656 43.3125 L 11.023438 43.3125 C 7.527344 43.164062 4.835938 40.476562 4.6875 37.050781 L 4.6875 31.269531 C 4.6875 30.328125 5.449219 29.566406 6.386719 29.566406 C 7.328125 29.566406 8.089844 30.328125 8.089844 31.269531 L 8.089844 36.976562 C 8.15625 38.550781 9.449219 39.84375 11.09375 39.910156 L 17.847656 39.910156 C 18.785156 39.910156 19.550781 40.671875 19.550781 41.609375 C 19.550781 42.550781 18.785156 43.3125 17.847656 43.3125 Z M 17.847656 43.3125 "/>
<path style=" stroke:none;fill-rule:nonzero;fill:rgb(0%,0%,0%);fill-opacity:1;" d="M 32.664062 36.609375 L 15.878906 36.609375 C 13.402344 36.59375 11.394531 34.574219 11.394531 32.109375 L 11.394531 15.324219 C 11.40625 12.847656 13.421875 10.839844 15.894531 10.839844 L 32.679688 10.839844 C 35.15625 10.839844 37.175781 12.855469 37.175781 15.335938 L 37.160156 32.113281 C 37.160156 34.589844 35.144531 36.609375 32.664062 36.609375 Z M 15.890625 14.242188 C 15.289062 14.242188 14.800781 14.730469 14.796875 15.332031 L 14.796875 32.109375 C 14.796875 32.710938 15.285156 33.203125 15.886719 33.207031 L 32.664062 33.207031 C 33.265625 33.207031 33.757812 32.714844 33.757812 32.109375 L 33.773438 15.335938 C 33.773438 14.730469 33.28125 14.242188 32.675781 14.242188 Z M 15.890625 14.242188 "/>
</g>
</svg>
