<?xml version="1.0" encoding="UTF-8"?>
<svg xmlns="http://www.w3.org/2000/svg" xmlns:xlink="http://www.w3.org/1999/xlink" width="48pt" height="48pt" viewBox="0 0 48 48" version="1.1">
<g id="surface1">
<path style=" stroke:none;fill-rule:nonzero;fill:rgb(0%,0%,0%);fill-opacity:1;" d="M 9.035156 20.652344 L 38.960938 20.652344 C 39.019531 20.65625 39.074219 20.65625 39.132812 20.65625 C 40.855469 20.65625 42.265625 19.359375 42.410156 17.644531 C 42.414062 17.597656 42.417969 17.554688 42.417969 17.507812 L 42.421875 7.25 C 42.421875 7.203125 42.421875 7.160156 42.417969 7.113281 C 42.269531 5.367188 40.726562 4.019531 38.964844 4.105469 L 9.039062 4.105469 C 7.289062 4.023438 5.734375 5.367188 5.585938 7.113281 C 5.582031 7.160156 5.582031 7.203125 5.582031 7.25 L 5.582031 17.507812 C 5.582031 17.550781 5.582031 17.597656 5.585938 17.644531 C 5.734375 19.386719 7.273438 20.757812 9.035156 20.652344 Z M 8.796875 7.363281 C 8.8125 7.335938 8.839844 7.316406 8.875 7.316406 C 8.914062 7.320312 8.953125 7.320312 8.992188 7.320312 L 39.011719 7.320312 C 39.050781 7.320312 39.097656 7.320312 39.136719 7.316406 C 39.164062 7.316406 39.191406 7.335938 39.203125 7.363281 L 39.199219 17.394531 C 39.1875 17.421875 39.160156 17.441406 39.132812 17.441406 L 39.125 17.441406 C 39.085938 17.4375 39.046875 17.4375 39.007812 17.4375 L 8.988281 17.4375 C 8.949219 17.4375 8.902344 17.4375 8.867188 17.441406 C 8.839844 17.441406 8.808594 17.421875 8.796875 17.394531 Z M 8.796875 7.363281 "/>
<path style=" stroke:none;fill-rule:nonzero;fill:rgb(0%,0%,0%);fill-opacity:1;" d="M 39.226562 23.171875 C 39.15625 23.160156 39.085938 23.15625 39.015625 23.15625 L 8.992188 23.15625 C 8.921875 23.15625 8.851562 23.160156 8.78125 23.171875 C 6.8125 23.429688 5.421875 25.15625 5.578125 27.125 L 5.578125 39.929688 C 5.417969 41.894531 6.804688 43.621094 8.773438 43.882812 C 8.84375 43.894531 8.914062 43.898438 8.984375 43.898438 L 39.007812 43.898438 C 39.078125 43.898438 39.152344 43.894531 39.222656 43.882812 C 41.1875 43.621094 42.574219 41.898438 42.417969 39.933594 L 42.421875 27.125 C 42.578125 25.160156 41.191406 23.429688 39.226562 23.171875 Z M 38.863281 40.679688 L 9.132812 40.679688 C 8.910156 40.617188 8.761719 40.40625 8.785156 40.175781 C 8.789062 40.117188 8.792969 40.0625 8.792969 40.003906 L 8.792969 27.050781 C 8.792969 26.996094 8.789062 26.941406 8.785156 26.886719 C 8.761719 26.648438 8.910156 26.433594 9.132812 26.371094 L 38.871094 26.371094 C 39.09375 26.4375 39.238281 26.648438 39.214844 26.886719 C 39.210938 26.941406 39.207031 26.996094 39.207031 27.050781 L 39.203125 30.933594 L 26.03125 30.933594 C 25.144531 30.933594 24.425781 31.652344 24.425781 32.542969 L 24.425781 32.902344 L 18.398438 32.902344 C 17.511719 32.902344 16.789062 33.625 16.789062 34.511719 C 16.789062 35.398438 17.511719 36.121094 18.398438 36.121094 L 26.03125 36.121094 C 26.921875 36.121094 27.640625 35.398438 27.640625 34.511719 L 27.640625 34.152344 L 39.203125 34.152344 L 39.199219 40.003906 C 39.199219 40.0625 39.203125 40.117188 39.210938 40.171875 C 39.234375 40.402344 39.082031 40.617188 38.863281 40.679688 Z M 38.863281 40.679688 "/>
</g>
</svg>
