<?xml version="1.0" encoding="UTF-8"?>
<svg xmlns="http://www.w3.org/2000/svg" xmlns:xlink="http://www.w3.org/1999/xlink" width="48pt" height="48pt" viewBox="0 0 48 48" version="1.1">
<g id="surface1">
<path style=" stroke:none;fill-rule:nonzero;fill:rgb(0%,0%,0%);fill-opacity:1;" d="M 24 4.144531 C 13.050781 4.144531 4.144531 13.050781 4.144531 24 C 4.144531 34.949219 13.054688 43.855469 24 43.855469 C 34.949219 43.855469 43.855469 34.949219 43.855469 24 C 43.855469 13.050781 34.949219 4.144531 24 4.144531 Z M 24 40.800781 C 14.734375 40.800781 7.199219 33.265625 7.199219 24 C 7.199219 14.734375 14.734375 7.199219 24 7.199219 C 33.265625 7.199219 40.800781 14.734375 40.800781 24 C 40.800781 33.265625 33.265625 40.800781 24 40.800781 Z M 24 40.800781 "/>
<path style=" stroke:none;fill-rule:nonzero;fill:rgb(0%,0%,0%);fill-opacity:1;" d="M 31.332031 22.355469 L 25.527344 22.355469 L 25.527344 12.851562 C 25.527344 12.007812 24.84375 11.324219 24 11.324219 C 23.15625 11.324219 22.472656 12.007812 22.472656 12.851562 L 22.472656 25.40625 L 31.332031 25.40625 C 32.175781 25.40625 32.859375 24.722656 32.859375 23.882812 C 32.859375 23.039062 32.175781 22.355469 31.332031 22.355469 Z M 31.332031 22.355469 "/>
</g>
</svg>
