<?xml version="1.0" encoding="UTF-8"?>
<svg xmlns="http://www.w3.org/2000/svg" xmlns:xlink="http://www.w3.org/1999/xlink" width="48pt" height="48pt" viewBox="0 0 48 48" version="1.1">
<g id="surface1">
<path style=" stroke:none;fill-rule:nonzero;fill:rgb(0%,0%,0%);fill-opacity:1;" d="M 42.316406 40.316406 L 34.230469 32.230469 C 36.8125 29.277344 38.390625 25.421875 38.390625 21.203125 C 38.390625 11.9375 30.851562 4.398438 21.582031 4.398438 C 12.316406 4.398438 4.777344 11.9375 4.777344 21.203125 C 4.777344 30.46875 12.316406 38.007812 21.582031 38.007812 C 25.417969 38.007812 28.945312 36.699219 31.777344 34.53125 L 39.9375 42.695312 C 40.265625 43.023438 40.699219 43.1875 41.128906 43.1875 C 41.554688 43.1875 41.988281 43.023438 42.316406 42.695312 C 42.972656 42.039062 42.972656 40.972656 42.316406 40.316406 Z M 8.140625 21.203125 C 8.140625 13.789062 14.171875 7.757812 21.585938 7.757812 C 28.996094 7.757812 35.027344 13.789062 35.027344 21.203125 C 35.027344 28.613281 28.996094 34.644531 21.585938 34.644531 C 14.171875 34.644531 8.140625 28.613281 8.140625 21.203125 Z M 8.140625 21.203125 "/>
<path style=" stroke:none;fill-rule:nonzero;fill:rgb(0%,0%,0%);fill-opacity:1;" d="M 26.890625 19.523438 L 23.265625 19.523438 L 23.265625 15.894531 C 23.265625 14.964844 22.511719 14.214844 21.585938 14.214844 C 20.65625 14.214844 19.90625 14.964844 19.90625 15.894531 L 19.90625 19.523438 L 16.277344 19.523438 C 15.347656 19.523438 14.597656 20.273438 14.597656 21.203125 C 14.597656 22.128906 15.347656 22.882812 16.277344 22.882812 L 19.90625 22.882812 L 19.90625 26.507812 C 19.90625 27.4375 20.65625 28.1875 21.585938 28.1875 C 22.511719 28.1875 23.265625 27.4375 23.265625 26.507812 L 23.265625 22.882812 L 26.890625 22.882812 C 27.820312 22.882812 28.570312 22.128906 28.570312 21.203125 C 28.570312 20.273438 27.820312 19.523438 26.890625 19.523438 Z M 26.890625 19.523438 "/>
</g>
</svg>
