<?xml version="1.0" encoding="UTF-8"?>
<svg xmlns="http://www.w3.org/2000/svg" xmlns:xlink="http://www.w3.org/1999/xlink" width="48pt" height="48pt" viewBox="0 0 48 48" version="1.1">
<g id="surface1">
<path style=" stroke:none;fill-rule:nonzero;fill:rgb(0%,0%,0%);fill-opacity:1;" d="M 29.628906 43.96875 C 28.574219 43.96875 27.566406 43.464844 26.933594 42.625 L 26.347656 41.964844 C 25.609375 41.128906 24.867188 40.296875 24.15625 39.441406 C 24.136719 39.417969 24.117188 39.394531 24.101562 39.371094 C 24.046875 39.378906 23.976562 39.386719 23.902344 39.386719 C 22.992188 40.40625 22.082031 41.425781 21.195312 42.46875 C 20.34375 43.625 18.820312 44.179688 17.417969 43.835938 C 17.269531 43.800781 17.128906 43.742188 16.996094 43.667969 L 10.464844 39.894531 C 10.335938 39.820312 10.214844 39.726562 10.109375 39.617188 C 9.09375 38.558594 8.816406 36.964844 9.417969 35.625 C 9.660156 34.988281 9.871094 34.339844 10.085938 33.691406 C 10.289062 33.078125 10.492188 32.464844 10.714844 31.855469 C 10.730469 31.820312 10.738281 31.789062 10.746094 31.765625 C 10.703125 31.703125 10.664062 31.648438 10.628906 31.589844 C 9.644531 31.398438 8.660156 31.203125 7.675781 31.003906 L 6.476562 30.765625 C 5.621094 30.675781 4.847656 30.273438 4.28125 29.621094 C 3.6875 28.941406 3.398438 28.070312 3.460938 27.167969 C 3.460938 27.164062 3.464844 27.148438 3.464844 27.125 C 3.460938 25.054688 3.460938 22.980469 3.460938 20.90625 C 3.378906 20.050781 3.617188 19.210938 4.144531 18.527344 C 4.691406 17.808594 5.488281 17.347656 6.382812 17.226562 C 6.414062 17.222656 6.441406 17.222656 6.472656 17.21875 C 6.792969 17.152344 7.113281 17.082031 7.433594 17.011719 C 8.328125 16.816406 9.253906 16.617188 10.203125 16.496094 C 10.257812 16.488281 10.3125 16.484375 10.371094 16.484375 C 10.523438 16.480469 10.664062 16.40625 10.753906 16.285156 C 10.296875 14.945312 9.824219 13.554688 9.355469 12.164062 C 9.011719 11.371094 8.984375 10.496094 9.273438 9.683594 C 9.578125 8.835938 10.195312 8.160156 11.011719 7.777344 C 11.015625 7.773438 11.015625 7.773438 11.019531 7.773438 C 12.828125 6.722656 14.636719 5.679688 16.441406 4.644531 C 17.867188 3.640625 20.011719 3.976562 21.0625 5.375 L 21.78125 6.1875 C 22.472656 6.96875 23.164062 7.75 23.839844 8.5625 C 23.859375 8.582031 23.878906 8.605469 23.894531 8.628906 C 23.953125 8.621094 24.019531 8.617188 24.089844 8.617188 C 25.054688 7.539062 25.9375 6.550781 26.796875 5.535156 C 27.648438 4.371094 29.171875 3.8125 30.578125 4.152344 C 30.726562 4.191406 30.871094 4.246094 31.003906 4.324219 L 37.535156 8.09375 C 37.664062 8.171875 37.785156 8.265625 37.890625 8.375 C 38.910156 9.4375 39.183594 11.03125 38.582031 12.367188 C 38.339844 13.003906 38.128906 13.648438 37.914062 14.292969 C 37.714844 14.910156 37.507812 15.527344 37.285156 16.136719 C 37.273438 16.167969 37.261719 16.195312 37.253906 16.21875 C 37.296875 16.273438 37.328125 16.328125 37.359375 16.382812 C 38.210938 16.558594 39.0625 16.730469 39.914062 16.902344 L 41.476562 17.222656 C 43.273438 17.386719 44.636719 18.949219 44.546875 20.765625 C 44.546875 20.816406 44.539062 20.878906 44.53125 20.9375 L 44.53125 27.09375 C 44.613281 27.945312 44.371094 28.789062 43.847656 29.472656 C 43.296875 30.191406 42.5 30.652344 41.605469 30.769531 C 41.59375 30.773438 41.5625 30.777344 41.539062 30.777344 C 41.199219 30.847656 40.859375 30.921875 40.523438 30.992188 C 39.640625 31.1875 38.726562 31.386719 37.785156 31.503906 C 37.734375 31.507812 37.679688 31.511719 37.625 31.515625 C 37.46875 31.519531 37.328125 31.59375 37.238281 31.714844 C 37.699219 33.039062 38.171875 34.4375 38.640625 35.839844 C 38.980469 36.628906 39.007812 37.503906 38.714844 38.316406 C 38.410156 39.167969 37.789062 39.84375 36.972656 40.226562 C 35.484375 41.09375 33.914062 41.996094 32.355469 42.898438 L 31.554688 43.359375 C 30.988281 43.757812 30.324219 43.96875 29.628906 43.96875 Z M 26.695312 37.457031 C 27.367188 38.261719 28.0625 39.042969 28.757812 39.824219 L 29.390625 40.539062 C 29.425781 40.578125 29.457031 40.617188 29.488281 40.660156 C 29.621094 40.835938 29.699219 40.726562 29.714844 40.71875 C 29.769531 40.679688 29.820312 40.640625 29.878906 40.609375 L 30.746094 40.109375 C 32.308594 39.210938 33.871094 38.304688 35.4375 37.398438 C 35.484375 37.367188 35.539062 37.34375 35.589844 37.320312 C 35.648438 37.289062 35.675781 37.261719 35.6875 37.226562 C 35.710938 37.167969 35.6875 37.128906 35.683594 37.117188 C 35.65625 37.058594 35.632812 36.996094 35.609375 36.9375 C 35.105469 35.421875 34.59375 33.914062 34.070312 32.40625 C 33.886719 31.765625 33.933594 31.171875 34.179688 30.648438 C 34.714844 29.277344 35.984375 28.367188 37.457031 28.296875 C 38.230469 28.195312 39.015625 28.023438 39.84375 27.847656 C 40.21875 27.765625 40.59375 27.683594 40.972656 27.605469 C 41.003906 27.601562 41.039062 27.59375 41.074219 27.589844 C 41.089844 27.589844 41.15625 27.578125 41.175781 27.578125 C 41.261719 27.566406 41.335938 27.472656 41.324219 27.394531 C 41.316406 27.324219 41.3125 27.253906 41.3125 27.179688 L 41.3125 20.832031 C 41.3125 20.746094 41.320312 20.664062 41.335938 20.578125 C 41.335938 20.511719 41.265625 20.433594 41.175781 20.429688 C 41.09375 20.425781 41.015625 20.414062 40.933594 20.398438 L 39.277344 20.0625 C 38.273438 19.859375 37.269531 19.652344 36.269531 19.445312 C 36.191406 19.425781 36.117188 19.40625 36.042969 19.378906 C 35.597656 19.214844 35.210938 18.933594 34.917969 18.566406 C 34.761719 18.378906 34.667969 18.195312 34.609375 18.070312 C 33.605469 16.816406 34.09375 15.480469 34.261719 15.027344 C 34.472656 14.449219 34.664062 13.867188 34.855469 13.285156 C 35.089844 12.574219 35.324219 11.867188 35.589844 11.171875 C 35.605469 11.128906 35.621094 11.089844 35.640625 11.050781 C 35.691406 10.945312 35.691406 10.828125 35.644531 10.726562 L 29.691406 7.285156 C 29.542969 7.300781 29.453125 7.359375 29.394531 7.445312 C 29.363281 7.488281 29.332031 7.527344 29.300781 7.566406 C 28.304688 8.742188 27.292969 9.871094 26.171875 11.121094 C 26.128906 11.171875 26.078125 11.21875 26.03125 11.261719 C 25.671875 11.574219 25.234375 11.769531 24.761719 11.832031 C 24.574219 11.859375 24.378906 11.859375 24.179688 11.84375 C 23.023438 12.007812 21.917969 11.480469 21.296875 10.542969 C 20.664062 9.785156 20.015625 9.054688 19.367188 8.324219 L 18.605469 7.457031 C 18.570312 7.421875 18.539062 7.382812 18.511719 7.34375 C 18.441406 7.261719 18.402344 7.253906 18.371094 7.253906 C 18.320312 7.292969 18.175781 7.359375 18.117188 7.394531 C 16.269531 8.457031 14.417969 9.527344 12.5625 10.601562 C 12.5 10.640625 12.433594 10.671875 12.363281 10.699219 C 12.320312 10.71875 12.28125 10.824219 12.3125 10.886719 C 12.339844 10.941406 12.363281 11 12.382812 11.058594 C 12.894531 12.570312 13.40625 14.085938 13.925781 15.601562 C 14.109375 16.222656 14.066406 16.816406 13.820312 17.34375 C 13.289062 18.699219 11.988281 19.632812 10.535156 19.703125 C 9.753906 19.804688 8.957031 19.976562 8.117188 20.160156 C 7.753906 20.238281 7.390625 20.316406 7.027344 20.390625 C 6.964844 20.40625 6.902344 20.414062 6.835938 20.417969 C 6.734375 20.429688 6.660156 20.527344 6.671875 20.601562 C 6.679688 20.671875 6.6875 20.746094 6.6875 20.816406 C 6.683594 22.941406 6.683594 25.066406 6.6875 27.191406 C 6.6875 27.246094 6.6875 27.300781 6.679688 27.355469 C 6.675781 27.4375 6.6875 27.476562 6.714844 27.507812 C 6.742188 27.539062 6.777344 27.558594 6.816406 27.558594 C 6.886719 27.566406 6.953125 27.574219 7.023438 27.585938 L 8.3125 27.84375 C 9.402344 28.0625 10.492188 28.28125 11.585938 28.492188 C 12.386719 28.601562 13.078125 29.140625 13.378906 29.894531 C 14.429688 31.089844 13.914062 32.496094 13.742188 32.964844 C 13.53125 33.539062 13.339844 34.117188 13.148438 34.699219 C 12.914062 35.410156 12.679688 36.121094 12.414062 36.820312 C 12.398438 36.859375 12.382812 36.898438 12.363281 36.9375 C 12.3125 37.039062 12.3125 37.160156 12.355469 37.261719 L 18.3125 40.703125 C 18.460938 40.6875 18.554688 40.628906 18.613281 40.546875 C 18.640625 40.507812 18.667969 40.46875 18.699219 40.433594 C 19.695312 39.253906 20.734375 38.09375 21.738281 36.972656 L 21.824219 36.878906 C 21.871094 36.824219 21.921875 36.773438 21.976562 36.730469 C 22.339844 36.417969 22.78125 36.222656 23.253906 36.164062 C 23.324219 36.15625 23.488281 36.144531 23.554688 36.144531 C 23.640625 36.144531 23.730469 36.148438 23.816406 36.15625 C 23.960938 36.136719 24.09375 36.128906 24.226562 36.128906 C 25.21875 36.128906 26.148438 36.636719 26.695312 37.457031 Z M 23.992188 32.472656 C 22.515625 32.472656 21.054688 32.082031 19.765625 31.34375 C 15.722656 29.007812 14.324219 23.820312 16.644531 19.769531 C 18.152344 17.140625 20.976562 15.507812 24.011719 15.507812 C 25.484375 15.507812 26.945312 15.894531 28.226562 16.632812 C 32.285156 18.960938 33.691406 24.15625 31.367188 28.214844 C 29.851562 30.84375 27.023438 32.472656 23.992188 32.472656 Z M 24.011719 18.730469 C 22.128906 18.730469 20.375 19.742188 19.4375 21.375 C 18 23.886719 18.867188 27.105469 21.371094 28.550781 C 22.171875 29.007812 23.078125 29.25 23.992188 29.25 C 25.878906 29.25 27.632812 28.238281 28.574219 26.609375 C 30.015625 24.09375 29.140625 20.871094 26.625 19.425781 C 25.828125 18.972656 24.925781 18.730469 24.011719 18.730469 Z M 24.011719 18.730469 "/>
</g>
</svg>
