<?xml version="1.0" encoding="UTF-8"?>
<svg xmlns="http://www.w3.org/2000/svg" xmlns:xlink="http://www.w3.org/1999/xlink" width="48pt" height="48pt" viewBox="0 0 48 48" version="1.1">
<g id="surface1">
<path style=" stroke:none;fill-rule:nonzero;fill:rgb(0%,0%,0%);fill-opacity:1;" d="M 42.230469 37.945312 L 5.871094 37.945312 L 5.871094 10.054688 C 5.871094 9.285156 5.246094 8.660156 4.476562 8.660156 C 3.707031 8.660156 3.082031 9.285156 3.082031 10.054688 L 3.082031 39.339844 C 3.082031 40.109375 3.707031 40.734375 4.476562 40.734375 L 42.230469 40.734375 C 43 40.734375 43.625 40.109375 43.625 39.339844 C 43.625 38.566406 43 37.945312 42.230469 37.945312 Z M 42.230469 37.945312 "/>
<path style=" stroke:none;fill-rule:nonzero;fill:rgb(0%,0%,0%);fill-opacity:1;" d="M 40.730469 7.265625 L 15.632812 7.265625 C 13.328125 7.265625 11.449219 9.144531 11.449219 11.449219 L 11.449219 28.183594 C 11.449219 30.488281 13.328125 32.367188 15.632812 32.367188 L 40.734375 32.367188 C 43.039062 32.367188 44.917969 30.488281 44.917969 28.183594 L 44.917969 11.449219 C 44.914062 9.144531 43.039062 7.265625 40.730469 7.265625 Z M 42.128906 28.183594 C 42.128906 28.953125 41.5 29.578125 40.730469 29.578125 L 15.632812 29.578125 C 14.863281 29.578125 14.238281 28.953125 14.238281 28.183594 L 14.238281 11.449219 C 14.238281 10.679688 14.863281 10.054688 15.632812 10.054688 L 40.734375 10.054688 C 41.503906 10.054688 42.128906 10.679688 42.128906 11.449219 Z M 42.128906 28.183594 "/>
</g>
</svg>
