<?xml version="1.0" encoding="UTF-8"?>
<svg xmlns="http://www.w3.org/2000/svg" xmlns:xlink="http://www.w3.org/1999/xlink" width="48pt" height="48pt" viewBox="0 0 48 48" version="1.1">
<g id="surface1">
<path style=" stroke:none;fill-rule:nonzero;fill:rgb(0%,0%,0%);fill-opacity:1;" d="M 41.179688 10.214844 C 40.890625 9.914062 40.488281 9.742188 40.070312 9.742188 L 33.128906 9.742188 L 33.128906 9.359375 C 33.128906 3.886719 28.546875 3.886719 26.347656 3.886719 L 22.925781 3.886719 C 20.933594 3.886719 14.878906 3.886719 14.878906 9.359375 L 14.878906 9.742188 L 7.9375 9.742188 C 7.515625 9.742188 7.113281 9.914062 6.824219 10.21875 C 6.535156 10.519531 6.382812 10.929688 6.402344 11.347656 L 7.597656 37.824219 C 7.707031 41.351562 10.558594 44.113281 14.082031 44.113281 L 33.816406 44.109375 L 34.035156 44.113281 C 37.558594 44.113281 40.40625 41.355469 40.523438 37.839844 L 41.605469 11.34375 C 41.621094 10.925781 41.46875 10.519531 41.179688 10.214844 Z M 17.949219 9.359375 C 17.949219 8.144531 18.335938 6.960938 22.925781 6.960938 L 26.34375 6.960938 C 29.769531 6.960938 30.054688 7.546875 30.054688 9.359375 L 30.054688 9.742188 L 17.949219 9.742188 Z M 37.453125 37.734375 C 37.390625 39.589844 35.890625 41.039062 34.035156 41.039062 L 14.082031 41.039062 C 12.226562 41.039062 10.726562 39.585938 10.664062 37.707031 L 9.539062 12.816406 L 38.46875 12.816406 Z M 37.453125 37.734375 "/>
<path style=" stroke:none;fill-rule:nonzero;fill:rgb(0%,0%,0%);fill-opacity:1;" d="M 17.691406 20.421875 C 16.84375 20.472656 16.203125 21.203125 16.253906 22.050781 L 16.960938 33.269531 C 17.011719 34.082031 17.6875 34.707031 18.492188 34.707031 C 18.523438 34.707031 18.558594 34.707031 18.589844 34.703125 C 19.4375 34.652344 20.082031 33.921875 20.027344 33.074219 L 19.320312 21.855469 C 19.269531 21.011719 18.546875 20.347656 17.691406 20.421875 Z M 17.691406 20.421875 "/>
<path style=" stroke:none;fill-rule:nonzero;fill:rgb(0%,0%,0%);fill-opacity:1;" d="M 29.804688 20.421875 C 28.960938 20.347656 28.230469 21.007812 28.175781 21.855469 L 27.464844 33.074219 C 27.414062 33.921875 28.054688 34.652344 28.902344 34.707031 C 28.9375 34.707031 28.96875 34.710938 29.003906 34.710938 C 29.808594 34.710938 30.484375 34.082031 30.535156 33.269531 L 31.242188 22.050781 C 31.296875 21.203125 30.652344 20.472656 29.804688 20.421875 Z M 29.804688 20.421875 "/>
</g>
</svg>
