<?xml version="1.0" encoding="UTF-8"?>
<svg xmlns="http://www.w3.org/2000/svg" xmlns:xlink="http://www.w3.org/1999/xlink" width="48pt" height="48pt" viewBox="0 0 48 48" version="1.1">
<g id="surface1">
<path style=" stroke:none;fill-rule:nonzero;fill:rgb(0%,0%,0%);fill-opacity:1;" d="M 42.328125 40.328125 L 34.238281 32.234375 C 36.820312 29.28125 38.398438 25.425781 38.398438 21.199219 C 38.398438 11.929688 30.855469 4.386719 21.582031 4.386719 C 12.308594 4.386719 4.765625 11.929688 4.765625 21.199219 C 4.765625 30.472656 12.308594 38.015625 21.582031 38.015625 C 25.417969 38.015625 28.949219 36.710938 31.78125 34.535156 L 39.949219 42.707031 C 40.28125 43.035156 40.710938 43.199219 41.140625 43.199219 C 41.570312 43.199219 42 43.035156 42.328125 42.707031 C 42.984375 42.050781 42.984375 40.984375 42.328125 40.328125 Z M 8.128906 21.199219 C 8.128906 13.78125 14.164062 7.746094 21.582031 7.746094 C 29 7.746094 35.035156 13.78125 35.035156 21.199219 C 35.035156 28.617188 29 34.652344 21.582031 34.652344 C 14.164062 34.652344 8.128906 28.617188 8.128906 21.199219 Z M 8.128906 21.199219 "/>
<path style=" stroke:none;fill-rule:nonzero;fill:rgb(0%,0%,0%);fill-opacity:1;" d="M 26.894531 19.519531 L 16.269531 19.519531 C 15.34375 19.519531 14.589844 20.273438 14.589844 21.199219 C 14.589844 22.128906 15.34375 22.882812 16.269531 22.882812 L 26.894531 22.882812 C 27.820312 22.882812 28.574219 22.128906 28.574219 21.199219 C 28.574219 20.273438 27.820312 19.519531 26.894531 19.519531 Z M 26.894531 19.519531 "/>
</g>
</svg>
