<?xml version="1.0" encoding="UTF-8"?>
<svg xmlns="http://www.w3.org/2000/svg" xmlns:xlink="http://www.w3.org/1999/xlink" width="48pt" height="48pt" viewBox="0 0 48 48" version="1.1">
<g id="surface1">
<path style=" stroke:none;fill-rule:nonzero;fill:rgb(0%,0%,0%);fill-opacity:1;" d="M 40.742188 11.695312 L 36.285156 7.21875 C 36.136719 7.070312 35.972656 6.929688 35.808594 6.804688 C 34.953125 6.148438 33.929688 5.800781 32.851562 5.800781 C 31.359375 5.800781 29.984375 6.460938 29.054688 7.617188 L 5.84375 30.726562 L 5.84375 41.996094 L 17.015625 42.199219 L 40.441406 18.875 C 40.523438 18.808594 40.597656 18.738281 40.675781 18.664062 C 42.613281 16.765625 42.648438 13.644531 40.742188 11.695312 Z M 15.714844 38.964844 L 9.054688 38.84375 L 9.054688 32.058594 L 27.144531 14.050781 L 33.917969 20.855469 Z M 38.367188 16.425781 L 36.191406 18.589844 L 29.421875 11.785156 L 31.386719 9.824219 L 31.53125 9.660156 C 32.070312 8.957031 33.140625 8.800781 33.863281 9.355469 C 33.921875 9.398438 33.972656 9.445312 34.015625 9.488281 L 38.457031 13.949219 C 39.117188 14.625 39.105469 15.710938 38.367188 16.425781 Z M 38.367188 16.425781 "/>
</g>
</svg>
