<?xml version="1.0" encoding="UTF-8"?>
<svg xmlns="http://www.w3.org/2000/svg" xmlns:xlink="http://www.w3.org/1999/xlink" width="48pt" height="48pt" viewBox="0 0 48 48" version="1.1">
<g id="surface1">
<path style=" stroke:none;fill-rule:nonzero;fill:rgb(0%,0%,0%);fill-opacity:1;" d="M 38.449219 3.175781 L 17.695312 3.175781 C 14.222656 3.175781 11.398438 6.003906 11.398438 9.472656 L 11.398438 11.964844 L 8.863281 11.964844 L 8.730469 11.96875 C 5.488281 12.246094 3.085938 15.007812 3.261719 18.171875 L 3.261719 33.207031 C 3.253906 33.433594 3.050781 38.796875 6.285156 42.175781 C 7.964844 43.933594 10.214844 44.824219 12.972656 44.824219 L 35.71875 44.824219 C 35.734375 44.824219 35.753906 44.824219 35.78125 44.824219 C 36.238281 44.824219 38.398438 44.730469 40.082031 43.085938 C 41.328125 41.867188 41.960938 40.160156 41.960938 38.011719 L 41.960938 35.457031 C 43.644531 34.324219 44.75 32.40625 44.75 30.230469 L 44.75 9.472656 C 44.75 6.003906 41.925781 3.175781 38.449219 3.175781 Z M 17.695312 6.324219 L 38.449219 6.324219 C 40.1875 6.324219 41.601562 7.738281 41.601562 9.472656 L 41.601562 30.230469 C 41.601562 31.96875 40.1875 33.378906 38.449219 33.378906 L 17.695312 33.378906 C 15.960938 33.378906 14.546875 31.96875 14.546875 30.230469 L 14.546875 13.554688 C 14.546875 13.546875 14.546875 13.542969 14.546875 13.539062 C 14.546875 13.53125 14.546875 13.527344 14.546875 13.523438 L 14.546875 9.472656 C 14.546875 7.738281 15.960938 6.324219 17.695312 6.324219 Z M 38.8125 38.011719 C 38.8125 39.269531 38.503906 40.210938 37.898438 40.816406 C 37.054688 41.660156 35.804688 41.675781 35.753906 41.675781 L 12.972656 41.675781 C 11.089844 41.675781 9.648438 41.128906 8.570312 40.007812 C 6.269531 37.613281 6.40625 33.386719 6.410156 33.277344 L 6.40625 18.085938 C 6.324219 16.566406 7.433594 15.273438 8.9375 15.113281 L 11.394531 15.113281 L 11.394531 30.230469 C 11.394531 33.703125 14.222656 36.53125 17.695312 36.53125 L 38.449219 36.53125 C 38.570312 36.53125 38.691406 36.519531 38.8125 36.511719 Z M 38.8125 38.011719 "/>
<path style=" stroke:none;fill-rule:nonzero;fill:rgb(0%,0%,0%);fill-opacity:1;" d="M 20.71875 28.347656 C 21.109375 28.347656 21.507812 28.199219 21.8125 27.90625 L 32 18.054688 L 32.003906 25.367188 C 32.003906 26.238281 32.707031 26.941406 33.574219 26.941406 C 34.445312 26.941406 35.152344 26.238281 35.148438 25.367188 L 35.148438 13.035156 L 22.714844 13.039062 C 21.84375 13.039062 21.136719 13.746094 21.140625 14.613281 C 21.140625 15.484375 21.84375 16.1875 22.714844 16.1875 L 29.402344 16.1875 L 19.621094 25.640625 C 18.996094 26.242188 18.980469 27.242188 19.585938 27.867188 C 19.894531 28.1875 20.304688 28.347656 20.71875 28.347656 Z M 20.71875 28.347656 "/>
</g>
</svg>
