<?xml version="1.0" encoding="UTF-8"?>
<svg xmlns="http://www.w3.org/2000/svg" xmlns:xlink="http://www.w3.org/1999/xlink" width="48pt" height="48pt" viewBox="0 0 48 48" version="1.1">
<g id="surface1">
<path style=" stroke:none;fill-rule:nonzero;fill:rgb(0%,0%,0%);fill-opacity:1;" d="M 39.3125 4.753906 L 31.820312 4.753906 C 30.910156 4.753906 30.167969 5.492188 30.167969 6.40625 C 30.167969 7.320312 30.910156 8.058594 31.820312 8.058594 L 39.3125 8.058594 C 39.476562 8.058594 39.613281 8.195312 39.613281 8.363281 L 39.613281 39.640625 C 39.613281 39.804688 39.476562 39.941406 39.3125 39.941406 L 31.820312 39.941406 C 30.910156 39.941406 30.167969 40.683594 30.167969 41.59375 C 30.167969 42.507812 30.910156 43.246094 31.820312 43.246094 L 39.3125 43.246094 C 41.300781 43.246094 42.914062 41.628906 42.914062 39.640625 L 42.914062 8.359375 C 42.914062 6.371094 41.300781 4.753906 39.3125 4.753906 Z M 39.3125 4.753906 "/>
<path style=" stroke:none;fill-rule:nonzero;fill:rgb(0%,0%,0%);fill-opacity:1;" d="M 16.183594 39.941406 L 8.984375 39.941406 C 8.738281 39.96875 8.457031 39.757812 8.386719 39.488281 L 8.386719 8.511719 C 8.457031 8.242188 8.6875 8.035156 9.015625 8.058594 L 16.179688 8.058594 C 17.09375 8.058594 17.832031 7.320312 17.832031 6.40625 C 17.832031 5.492188 17.09375 4.753906 16.179688 4.753906 L 9.039062 4.753906 C 7.074219 4.703125 5.363281 6.175781 5.097656 8.136719 C 5.085938 8.210938 5.082031 8.285156 5.082031 8.363281 L 5.082031 39.640625 C 5.082031 39.714844 5.085938 39.789062 5.097656 39.863281 C 5.363281 41.804688 7.023438 43.246094 8.949219 43.246094 C 8.96875 43.246094 8.992188 43.246094 9.015625 43.246094 L 16.179688 43.246094 C 17.09375 43.246094 17.832031 42.507812 17.832031 41.59375 C 17.832031 40.683594 17.09375 39.941406 16.183594 39.941406 Z M 16.183594 39.941406 "/>
<path style=" stroke:none;fill-rule:nonzero;fill:rgb(0%,0%,0%);fill-opacity:1;" d="M 24.351562 37.3125 C 24.375 37.300781 24.394531 37.289062 24.414062 37.277344 C 24.496094 37.234375 24.574219 37.191406 24.648438 37.136719 C 24.667969 37.121094 24.6875 37.105469 24.707031 37.089844 C 24.714844 37.085938 24.71875 37.085938 24.726562 37.078125 L 31.242188 31.703125 C 31.945312 31.121094 32.046875 30.082031 31.464844 29.378906 C 30.886719 28.675781 29.847656 28.574219 29.140625 29.15625 L 25.328125 32.300781 L 25.328125 17.246094 L 29.140625 20.394531 C 29.449219 20.648438 29.820312 20.773438 30.191406 20.773438 C 30.667969 20.773438 31.140625 20.566406 31.464844 20.171875 C 32.046875 19.46875 31.945312 18.425781 31.242188 17.84375 L 24.726562 12.46875 C 24.722656 12.46875 24.722656 12.464844 24.71875 12.464844 C 24.695312 12.445312 24.671875 12.433594 24.652344 12.417969 C 24.609375 12.386719 24.566406 12.359375 24.519531 12.332031 C 24.515625 12.328125 24.511719 12.324219 24.507812 12.320312 C 24.484375 12.308594 24.464844 12.292969 24.445312 12.28125 C 24.421875 12.269531 24.398438 12.261719 24.375 12.253906 C 24.328125 12.230469 24.28125 12.214844 24.234375 12.195312 C 24.222656 12.191406 24.214844 12.1875 24.207031 12.183594 C 24.1875 12.179688 24.167969 12.164062 24.148438 12.160156 C 24.121094 12.152344 24.097656 12.152344 24.070312 12.144531 C 24.023438 12.132812 23.976562 12.125 23.925781 12.117188 C 23.867188 12.109375 23.808594 12.101562 23.746094 12.097656 C 23.722656 12.097656 23.699219 12.09375 23.675781 12.09375 C 23.648438 12.09375 23.628906 12.097656 23.601562 12.097656 C 23.542969 12.101562 23.484375 12.109375 23.421875 12.117188 C 23.371094 12.125 23.324219 12.132812 23.277344 12.144531 C 23.222656 12.160156 23.171875 12.175781 23.117188 12.195312 C 23.066406 12.214844 23.019531 12.230469 22.96875 12.253906 C 22.949219 12.265625 22.925781 12.269531 22.90625 12.28125 C 22.882812 12.296875 22.855469 12.316406 22.832031 12.328125 C 22.785156 12.359375 22.738281 12.386719 22.695312 12.417969 C 22.675781 12.433594 22.652344 12.445312 22.628906 12.464844 C 22.628906 12.464844 22.625 12.46875 22.621094 12.46875 L 16.105469 17.84375 C 15.402344 18.425781 15.304688 19.46875 15.882812 20.171875 C 16.210938 20.566406 16.683594 20.773438 17.160156 20.773438 C 17.527344 20.773438 17.902344 20.648438 18.210938 20.394531 L 22.023438 17.246094 L 22.023438 32.300781 L 18.210938 29.15625 C 17.507812 28.574219 16.464844 28.675781 15.882812 29.378906 C 15.300781 30.082031 15.402344 31.121094 16.105469 31.703125 L 22.621094 37.078125 C 22.628906 37.085938 22.636719 37.085938 22.640625 37.089844 C 22.660156 37.105469 22.679688 37.121094 22.699219 37.136719 C 22.773438 37.191406 22.851562 37.234375 22.933594 37.277344 C 22.953125 37.289062 22.972656 37.300781 22.996094 37.3125 C 23.03125 37.328125 23.066406 37.339844 23.105469 37.351562 C 23.121094 37.359375 23.140625 37.363281 23.160156 37.371094 C 23.324219 37.425781 23.492188 37.460938 23.675781 37.460938 C 23.855469 37.460938 24.023438 37.425781 24.1875 37.371094 C 24.207031 37.363281 24.226562 37.359375 24.242188 37.351562 C 24.28125 37.339844 24.316406 37.328125 24.351562 37.3125 Z M 24.351562 37.3125 "/>
</g>
</svg>
