<?xml version="1.0" encoding="UTF-8"?>
<svg xmlns="http://www.w3.org/2000/svg" xmlns:xlink="http://www.w3.org/1999/xlink" width="48pt" height="48pt" viewBox="0 0 48 48" version="1.1">
<g id="surface1">
<path style=" stroke:none;fill-rule:nonzero;fill:rgb(0%,0%,0%);fill-opacity:1;" d="M 35.152344 38.691406 L 20.710938 38.691406 C 17.574219 38.691406 15.019531 36.136719 15.019531 33 L 15.019531 32.425781 C 15.03125 29.289062 17.582031 26.746094 20.710938 26.746094 L 35.152344 26.746094 C 38.292969 26.746094 40.84375 29.296875 40.84375 32.433594 L 40.84375 33 C 40.84375 36.140625 38.292969 38.691406 35.152344 38.691406 Z M 20.710938 30.039062 C 19.394531 30.039062 18.316406 31.109375 18.3125 32.429688 L 18.3125 33 C 18.3125 34.324219 19.390625 35.398438 20.710938 35.398438 L 35.152344 35.398438 C 36.476562 35.398438 37.550781 34.324219 37.550781 33 L 37.550781 32.4375 C 37.550781 31.113281 36.476562 30.039062 35.152344 30.039062 Z M 20.710938 30.039062 "/>
<path style=" stroke:none;fill-rule:nonzero;fill:rgb(0%,0%,0%);fill-opacity:1;" d="M 7.539062 9.472656 C 6.628906 9.472656 5.894531 8.734375 5.894531 7.824219 L 5.894531 5.515625 C 5.894531 4.605469 6.632812 3.867188 7.539062 3.867188 C 8.449219 3.867188 9.1875 4.605469 9.1875 5.515625 L 9.1875 7.824219 C 9.1875 8.734375 8.449219 9.472656 7.539062 9.472656 Z M 7.539062 9.472656 "/>
<path style=" stroke:none;fill-rule:nonzero;fill:rgb(0%,0%,0%);fill-opacity:1;" d="M 7.539062 31.65625 C 6.628906 31.65625 5.894531 30.921875 5.894531 30.011719 L 5.894531 12.445312 C 5.894531 11.535156 6.632812 10.800781 7.539062 10.800781 C 8.449219 10.800781 9.1875 11.539062 9.1875 12.445312 L 9.1875 30.011719 C 9.1875 30.921875 8.449219 31.65625 7.539062 31.65625 Z M 7.539062 31.65625 "/>
<path style=" stroke:none;fill-rule:nonzero;fill:rgb(0%,0%,0%);fill-opacity:1;" d="M 7.539062 44.132812 C 6.628906 44.132812 5.894531 43.394531 5.894531 42.484375 L 5.894531 40.175781 C 5.894531 39.265625 6.632812 38.53125 7.539062 38.53125 C 8.449219 38.53125 9.1875 39.265625 9.1875 40.175781 L 9.1875 42.484375 C 9.1875 43.394531 8.449219 44.132812 7.539062 44.132812 Z M 7.539062 44.132812 "/>
<path style=" stroke:none;fill-rule:nonzero;fill:rgb(0%,0%,0%);fill-opacity:1;" d="M 40.460938 23.386719 C 40.179688 23.386719 39.898438 23.316406 39.648438 23.175781 L 36.4375 21.359375 C 36.355469 21.363281 36.273438 21.363281 36.195312 21.363281 L 20.835938 21.367188 C 17.671875 21.367188 15.117188 18.886719 15.019531 15.722656 L 15.019531 11.0625 C 15.117188 7.851562 17.671875 5.371094 20.835938 5.371094 L 36.289062 5.371094 C 39.453125 5.371094 42.007812 7.847656 42.105469 11.011719 L 42.105469 21.742188 C 42.105469 22.324219 41.792969 22.867188 41.289062 23.164062 C 41.03125 23.3125 40.746094 23.386719 40.460938 23.386719 Z M 36.800781 18.027344 C 37.082031 18.027344 37.363281 18.101562 37.609375 18.238281 L 38.8125 18.917969 L 38.8125 11.0625 C 38.769531 9.742188 37.660156 8.664062 36.289062 8.664062 C 36.273438 8.664062 36.195312 8.667969 36.183594 8.667969 L 20.835938 8.664062 C 19.460938 8.664062 18.355469 9.738281 18.3125 11.113281 L 18.3125 15.675781 C 18.355469 16.996094 19.460938 18.070312 20.835938 18.070312 C 20.847656 18.070312 20.925781 18.070312 20.9375 18.070312 L 36.1875 18.070312 C 36.308594 18.070312 36.441406 18.0625 36.574219 18.042969 C 36.648438 18.03125 36.722656 18.027344 36.800781 18.027344 Z M 36.800781 18.027344 "/>
</g>
</svg>
