<?xml version="1.0" encoding="UTF-8"?>
<svg xmlns="http://www.w3.org/2000/svg" xmlns:xlink="http://www.w3.org/1999/xlink" width="48pt" height="48pt" viewBox="0 0 48 48" version="1.1">
<g id="surface1">
<path style=" stroke:none;fill-rule:nonzero;fill:rgb(25.490196%,25.490196%,25.490196%);fill-opacity:1;" d="M 45.699219 47.699219 C 45.699219 47.699219 45.601562 47.699219 45.601562 47.601562 C 45.300781 47.5 45 47.300781 44.800781 47.101562 C 43.101562 45.398438 41.300781 43.601562 39.601562 41.898438 C 38.199219 40.5 36.800781 39.101562 35.398438 37.699219 C 35.398438 37.699219 35.300781 37.601562 35.199219 37.601562 C 35.101562 37.5 35.101562 37.5 35 37.601562 C 35 37.601562 34.898438 37.699219 34.898438 37.699219 C 33.898438 38.5 32.800781 39.300781 31.601562 39.898438 C 30.199219 40.699219 28.699219 41.300781 27.101562 41.699219 C 26.699219 41.800781 26.398438 41.898438 26 42 C 25.898438 42 25.898438 42 25.800781 42 C 25.800781 41.898438 25.800781 41.898438 25.800781 41.800781 C 25.898438 41.699219 25.898438 41.601562 26 41.5 C 26.5 40.5 26.898438 39.5 27.199219 38.398438 C 27.199219 38.398438 27.199219 38.300781 27.199219 38.300781 C 27.199219 38.101562 27.398438 38 27.5 37.898438 C 27.800781 37.800781 28.101562 37.699219 28.300781 37.601562 C 29.898438 36.898438 31.300781 36.101562 32.601562 35 C 34.300781 33.601562 35.699219 31.898438 36.699219 30 C 37.5 28.699219 38 27.199219 38.398438 25.699219 C 38.601562 25 38.699219 24.300781 38.800781 23.5 C 38.898438 22.5 38.898438 21.601562 38.898438 20.601562 C 38.800781 19.199219 38.601562 17.800781 38.199219 16.398438 C 37.601562 14.300781 36.601562 12.300781 35.199219 10.601562 C 34.199219 9.199219 32.898438 8.101562 31.5 7.101562 C 30.898438 6.5 30 6 29 5.5 C 27.699219 4.898438 26.398438 4.398438 25 4.101562 C 24.5 4 23.898438 3.898438 23.398438 3.800781 C 23.101562 3.800781 22.800781 3.699219 22.398438 3.699219 C 22 3.699219 21.601562 3.699219 21.199219 3.699219 C 20.699219 3.699219 20.300781 3.699219 19.800781 3.800781 C 19.101562 3.898438 18.398438 4 17.699219 4.101562 C 16.5 4.398438 15.300781 4.699219 14.199219 5.199219 C 13 5.800781 11.800781 6.5 10.699219 7.300781 C 9.800781 8.199219 8.898438 9 8.199219 9.898438 C 7.398438 10.800781 6.699219 11.800781 6.101562 12.898438 C 5.5 13.898438 5 15 4.601562 16.199219 C 4.300781 17.101562 4.101562 18 4 18.898438 C 3.898438 19.300781 3.898438 19.699219 3.898438 20.101562 C 3.898438 20.601562 3.800781 21.199219 3.800781 21.699219 C 3.800781 22.300781 3.898438 22.898438 3.898438 23.5 C 3.898438 23.601562 3.898438 23.800781 3.800781 23.800781 C 3.199219 24.199219 2.800781 24.699219 2.398438 25.199219 C 2 25.699219 1.601562 26.199219 1.300781 26.699219 C 1.300781 26.800781 1.199219 26.800781 1.101562 26.800781 C 1 26.800781 1 26.699219 1 26.601562 C 0.898438 26.300781 0.898438 26.101562 0.800781 25.800781 C 0.699219 25.101562 0.5 24.5 0.5 23.800781 C 0.5 23.601562 0.5 23.398438 0.398438 23.101562 C 0.398438 23 0.398438 22.898438 0.300781 22.800781 C 0.300781 22.101562 0.300781 21.398438 0.300781 20.601562 C 0.300781 20.601562 0.300781 20.5 0.300781 20.5 C 0.300781 20.199219 0.300781 19.800781 0.398438 19.5 C 0.5 18.800781 0.5 18.199219 0.699219 17.5 C 1 15.601562 1.601562 13.699219 2.5 12 C 3.199219 10.601562 4.101562 9.300781 5.199219 8 C 5.898438 7.199219 6.601562 6.398438 7.398438 5.699219 C 8.300781 4.898438 9.199219 4.199219 10.199219 3.601562 C 11.601562 2.699219 13 2 14.5 1.5 C 16.101562 0.898438 17.800781 0.601562 19.398438 0.398438 C 19.898438 0.398438 20.5 0.300781 21 0.300781 C 21.101562 0.300781 21.101562 0.300781 21.199219 0.300781 C 21.398438 0.300781 21.601562 0.300781 21.800781 0.300781 C 21.800781 0.300781 21.898438 0.300781 21.898438 0.300781 C 22.398438 0.300781 23 0.300781 23.5 0.398438 C 24 0.398438 24.5 0.5 25 0.601562 C 25.898438 0.699219 26.699219 0.898438 27.601562 1.199219 C 29 1.601562 30.398438 2.199219 31.699219 2.898438 C 33 3.601562 34.101562 4.398438 35.199219 5.300781 C 36 6 36.699219 6.699219 37.398438 7.398438 C 38.199219 8.300781 38.898438 9.300781 39.601562 10.300781 C 40.398438 11.5 41 12.800781 41.5 14.199219 C 41.898438 15.300781 42.199219 16.5 42.398438 17.601562 C 42.601562 18.601562 42.699219 19.601562 42.699219 20.601562 C 42.699219 21.398438 42.699219 22.199219 42.601562 23 C 42.601562 23.601562 42.5 24.101562 42.398438 24.699219 C 42.199219 25.699219 42 26.699219 41.699219 27.699219 C 41.199219 29.199219 40.601562 30.601562 39.800781 32 C 39.199219 33 38.5 34 37.800781 34.898438 C 37.601562 35.101562 37.601562 35.101562 37.800781 35.300781 C 39.699219 37.199219 41.601562 39.101562 43.5 41 C 44.199219 41.699219 44.800781 42.300781 45.5 43 C 46 43.5 46.601562 44.101562 47.101562 44.601562 C 47.300781 44.800781 47.5 45 47.601562 45.199219 C 47.699219 45.398438 47.699219 45.601562 47.800781 45.800781 C 47.800781 45.898438 47.800781 46.101562 47.800781 46.199219 C 47.800781 46.199219 47.800781 46.199219 47.800781 46.300781 C 47.800781 46.5 47.699219 46.800781 47.601562 47 C 47.398438 47.398438 47 47.601562 46.601562 47.699219 C 46.5 47.699219 46.5 47.699219 46.398438 47.800781 C 46.101562 47.699219 45.898438 47.699219 45.699219 47.699219 Z M 45.699219 47.699219 "/>
<path style=" stroke:none;fill-rule:nonzero;fill:rgb(25.490196%,25.490196%,25.490196%);fill-opacity:1;" d="M 13.300781 21.898438 C 20.300781 21.898438 26.101562 27.601562 26.199219 34.601562 C 26.199219 38.199219 25 41.300781 22.398438 43.898438 C 19.898438 46.398438 16.800781 47.699219 13.199219 47.699219 C 9.601562 47.699219 6.601562 46.398438 4.101562 43.898438 C 1.601562 41.300781 0.300781 38.199219 0.300781 34.601562 C 0.398438 27.5 6.199219 21.898438 13.300781 21.898438 Z M 22.699219 34.800781 C 22.699219 29.699219 18.601562 25.398438 13.300781 25.398438 C 8 25.398438 3.800781 29.601562 3.800781 34.800781 C 3.800781 37.398438 4.699219 39.601562 6.5 41.398438 C 8.300781 43.300781 10.601562 44.199219 13.199219 44.199219 C 15.800781 44.199219 18 43.300781 19.800781 41.5 C 21.800781 39.601562 22.699219 37.398438 22.699219 34.800781 Z M 22.699219 34.800781 "/>
<path style=" stroke:none;fill-rule:nonzero;fill:rgb(25.490196%,25.490196%,25.490196%);fill-opacity:1;" d="M 8.699219 28.300781 C 9.101562 28.300781 9.5 28.5 9.898438 28.898438 C 10.601562 29.601562 11.398438 30.398438 12.101562 31.101562 C 12.398438 31.398438 12.699219 31.699219 13 32 C 13 32 13.101562 32.101562 13.101562 32.101562 C 13.300781 32.300781 13.398438 32.300781 13.5 32.101562 C 13.800781 31.800781 14.101562 31.5 14.398438 31.199219 C 15.199219 30.398438 15.898438 29.699219 16.699219 28.898438 C 17 28.601562 17.300781 28.398438 17.601562 28.398438 C 18.300781 28.199219 19.5 28.601562 19.699219 29.800781 C 19.800781 30.398438 19.699219 30.898438 19.300781 31.300781 C 19.101562 31.5 19 31.699219 18.800781 31.800781 C 18.5 32.101562 18.199219 32.398438 17.898438 32.699219 C 17.300781 33.300781 16.699219 33.898438 16 34.5 C 15.898438 34.601562 15.898438 34.601562 15.800781 34.699219 C 15.800781 34.800781 15.800781 34.800781 15.800781 34.898438 C 15.800781 35 15.898438 35 15.898438 35 C 17 36.101562 18 37.101562 19.101562 38.199219 C 19.300781 38.398438 19.398438 38.601562 19.5 38.800781 C 19.699219 39.199219 19.699219 39.5 19.5 39.898438 C 19.300781 40.601562 18.800781 41 18.101562 41.101562 C 17.5 41.199219 17.101562 41 16.601562 40.699219 C 16.5 40.699219 16.5 40.601562 16.398438 40.5 C 15.398438 39.5 14.398438 38.5 13.300781 37.398438 C 13.300781 37.398438 13.300781 37.398438 13.199219 37.300781 C 13 37.101562 12.898438 37.101562 12.699219 37.300781 C 12.699219 37.300781 12.601562 37.398438 12.601562 37.398438 C 11.601562 38.398438 10.5 39.5 9.5 40.5 C 9.300781 40.699219 9 40.898438 8.699219 41 C 7.699219 41.300781 6.699219 40.699219 6.5 39.699219 C 6.398438 39.101562 6.5 38.601562 7 38.101562 C 7 38.101562 7.101562 38 7.101562 38 C 8.199219 36.898438 9.199219 35.898438 10.300781 34.800781 C 10.5 34.601562 10.5 34.601562 10.300781 34.398438 C 9.300781 33.398438 8.300781 32.398438 7.300781 31.398438 C 7.199219 31.300781 7.101562 31.199219 6.898438 31 C 6.601562 30.699219 6.398438 30.300781 6.398438 29.800781 C 6.398438 29.101562 6.699219 28.601562 7.300781 28.300781 C 8 28.398438 8.300781 28.300781 8.699219 28.300781 Z M 8.699219 28.300781 "/>
</g>
</svg>
