<?xml version="1.0" encoding="UTF-8"?>
<svg xmlns="http://www.w3.org/2000/svg" xmlns:xlink="http://www.w3.org/1999/xlink" width="48pt" height="48pt" viewBox="0 0 48 48" version="1.1">
<g id="surface1">
<path style=" stroke:none;fill-rule:nonzero;fill:rgb(25.490196%,25.490196%,25.490196%);fill-opacity:1;" d="M 20.636719 38.121094 C 10.339844 38.121094 1.9375 29.722656 1.9375 19.421875 C 1.9375 9.121094 10.339844 0.722656 20.636719 0.722656 C 30.9375 0.722656 39.339844 9.121094 39.339844 19.421875 C 39.339844 29.722656 30.9375 38.121094 20.636719 38.121094 Z M 20.636719 4.722656 C 12.539062 4.722656 5.9375 11.324219 5.9375 19.421875 C 5.9375 27.523438 12.539062 34.121094 20.636719 34.121094 C 28.738281 34.121094 35.339844 27.523438 35.339844 19.421875 C 35.339844 11.324219 28.738281 4.722656 20.636719 4.722656 Z M 20.636719 4.722656 "/>
<path style=" stroke:none;fill-rule:nonzero;fill:rgb(25.490196%,25.490196%,25.490196%);fill-opacity:1;" d="M 39.636719 47.824219 C 37.636719 47.824219 35.738281 46.921875 34.4375 45.324219 L 26.636719 35.722656 C 26.339844 35.324219 26.136719 34.824219 26.238281 34.222656 C 26.339844 33.722656 26.539062 33.222656 26.9375 32.921875 L 34.136719 27.121094 C 35.039062 26.421875 36.238281 26.523438 36.9375 27.421875 L 44.738281 36.921875 C 44.839844 37.023438 44.839844 37.023438 44.839844 37.121094 C 47.136719 39.921875 46.636719 44.121094 43.738281 46.421875 C 42.539062 47.324219 41.039062 47.824219 39.636719 47.824219 Z M 30.9375 34.722656 L 37.4375 42.722656 C 38.339844 43.921875 40.039062 44.121094 41.136719 43.222656 C 42.238281 42.324219 42.539062 40.722656 41.636719 39.621094 C 41.636719 39.621094 41.539062 39.523438 41.539062 39.421875 L 35.039062 31.324219 Z M 30.9375 34.722656 "/>
<path style=" stroke:none;fill-rule:nonzero;fill:rgb(25.490196%,25.490196%,25.490196%);fill-opacity:1;" d="M 15.9375 19.921875 C 15.9375 21.324219 14.738281 22.523438 13.339844 22.523438 C 11.9375 22.523438 10.738281 21.324219 10.738281 19.921875 C 10.738281 18.523438 11.9375 17.324219 13.339844 17.324219 C 14.738281 17.324219 15.9375 18.421875 15.9375 19.921875 Z M 15.9375 19.921875 "/>
<path style=" stroke:none;fill-rule:nonzero;fill:rgb(25.490196%,25.490196%,25.490196%);fill-opacity:1;" d="M 23.339844 19.921875 C 23.339844 21.324219 22.136719 22.523438 20.738281 22.523438 C 19.339844 22.523438 18.136719 21.324219 18.136719 19.921875 C 18.136719 18.523438 19.339844 17.324219 20.738281 17.324219 C 22.136719 17.324219 23.339844 18.421875 23.339844 19.921875 Z M 23.339844 19.921875 "/>
<path style=" stroke:none;fill-rule:nonzero;fill:rgb(25.490196%,25.490196%,25.490196%);fill-opacity:1;" d="M 30.738281 19.921875 C 30.738281 21.324219 29.539062 22.523438 28.136719 22.523438 C 26.738281 22.523438 25.539062 21.324219 25.539062 19.921875 C 25.539062 18.523438 26.738281 17.324219 28.136719 17.324219 C 29.539062 17.324219 30.738281 18.421875 30.738281 19.921875 Z M 30.738281 19.921875 "/>
</g>
</svg>
