<?xml version="1.0" encoding="UTF-8"?>
<svg xmlns="http://www.w3.org/2000/svg" xmlns:xlink="http://www.w3.org/1999/xlink" width="48pt" height="48pt" viewBox="0 0 48 48" version="1.1">
<g id="surface1">
<path style=" stroke:none;fill-rule:nonzero;fill:rgb(92.941176%,92.941176%,95.294118%);fill-opacity:1;" d="M 27.601562 47.398438 L 20.398438 47.398438 C 18.800781 47.398438 17.5 46.300781 17.199219 44.699219 L 16.699219 42.5 C 16.5 42.398438 16.300781 42.300781 16.101562 42.199219 L 14.199219 43.398438 C 12.898438 44.199219 11.199219 44 10.101562 42.898438 L 5.101562 37.898438 C 3.898438 36.898438 3.699219 35.199219 4.5 33.800781 L 5.800781 32 C 5.699219 31.699219 5.601562 31.5 5.5 31.300781 L 3.199219 30.699219 C 1.699219 30.398438 0.601562 29.101562 0.601562 27.5 L 0.601562 20.300781 C 0.601562 18.699219 1.699219 17.398438 3.300781 17.101562 L 5.5 16.601562 C 5.601562 16.398438 5.699219 16.199219 5.800781 16 L 4.601562 14.199219 C 3.699219 12.898438 3.898438 11.199219 5 10.199219 L 10 5.199219 C 11 4 12.699219 3.800781 14.101562 4.601562 L 16 5.800781 C 16.300781 5.699219 16.5 5.601562 16.699219 5.5 L 17.300781 3.199219 C 17.601562 1.699219 18.898438 0.601562 20.5 0.601562 L 27.699219 0.601562 C 29.300781 0.601562 30.601562 1.699219 30.898438 3.300781 L 31.398438 5.5 C 31.601562 5.601562 31.800781 5.699219 32 5.800781 L 33.800781 4.601562 C 35.199219 3.800781 36.898438 4 37.898438 5 L 42.898438 10 C 44.101562 11 44.300781 12.699219 43.5 14.101562 L 42.199219 16 C 42.300781 16.199219 42.398438 16.5 42.5 16.699219 L 44.898438 17.199219 C 46.199219 17.601562 47.101562 18.800781 47.300781 20.199219 L 47.300781 27.699219 C 47.300781 29.300781 46.199219 30.601562 44.601562 30.898438 L 42.398438 31.398438 C 42.300781 31.601562 42.199219 31.800781 42.101562 32.101562 L 43.199219 34 C 44 35.300781 43.800781 37 42.699219 38.101562 L 37.699219 43.101562 C 36.699219 44.300781 35 44.5 33.601562 43.699219 L 31.699219 42.5 C 31.5 42.601562 31.199219 42.699219 31 42.800781 L 30.5 45 C 30.5 46.300781 29.199219 47.398438 27.601562 47.398438 Z M 26.800781 44 C 26.800781 44 26.800781 44.101562 26.800781 44 Z M 21.101562 43.898438 C 21.199219 44 21.199219 44 21.101562 43.898438 Z M 21 43.398438 L 27 43.398438 L 27.800781 39.601562 L 28.898438 39.199219 C 29.800781 38.898438 30.398438 38.699219 31 38.300781 L 32.101562 37.601562 L 35.5 39.800781 L 39.800781 35.5 L 37.800781 32.199219 L 38.300781 31.199219 C 38.699219 30.398438 39.101562 29.601562 39.300781 28.898438 L 39.699219 27.898438 L 43.5 27.101562 L 43.5 21 L 39.601562 20.199219 L 39.101562 19 C 38.800781 18.101562 38.601562 17.5 38.199219 16.898438 L 37.5 15.800781 L 39.699219 12.398438 L 35.398438 8.101562 L 32.300781 10.199219 L 31.300781 9.699219 C 30.5 9.300781 29.699219 8.898438 29 8.699219 L 28 8.300781 L 27.199219 4.5 L 21.199219 4.5 L 20.199219 8.5 L 19.199219 8.800781 C 18.300781 9.101562 17.699219 9.300781 17.101562 9.699219 L 16 10.398438 L 12.601562 8.199219 L 8.300781 12.5 L 10.398438 15.601562 L 9.898438 16.601562 C 9.5 17.398438 9.101562 18.199219 8.898438 18.898438 L 8.5 19.898438 L 4.699219 20.699219 L 4.699219 26.699219 L 8.699219 27.699219 L 9 28.699219 C 9.300781 29.601562 9.5 30.199219 9.898438 30.800781 L 10.601562 31.898438 L 8.398438 35.300781 L 12.699219 39.601562 L 16 37.5 L 17 38 C 17.800781 38.398438 18.601562 38.800781 19.300781 39 L 20.300781 39.398438 Z M 44 26.898438 Z M 4.101562 21 C 4 21.101562 4 21.101562 4.101562 21 Z M 26.898438 4 Z M 24 33.601562 C 18.699219 33.601562 14.398438 29.300781 14.398438 24 C 14.398438 18.699219 18.699219 14.398438 24 14.398438 C 29.300781 14.398438 33.601562 18.699219 33.601562 24 C 33.601562 29.300781 29.300781 33.601562 24 33.601562 Z M 24 18.398438 C 20.898438 18.398438 18.398438 20.898438 18.398438 24 C 18.398438 27.101562 20.898438 29.601562 24 29.601562 C 27.101562 29.601562 29.601562 27.101562 29.601562 24 C 29.601562 20.898438 27.101562 18.398438 24 18.398438 Z M 24 18.398438 "/>
</g>
</svg>
