<?xml version="1.0" encoding="utf-8"?>
<!-- Generator: Adobe Illustrator 16.0.0, SVG Export Plug-In . SVG Version: 6.00 Build 0)  -->
<!DOCTYPE svg PUBLIC "-//W3C//DTD SVG 1.1//EN" "http://www.w3.org/Graphics/SVG/1.1/DTD/svg11.dtd">
<svg version="1.1" id="Layer_1" xmlns="http://www.w3.org/2000/svg" xmlns:xlink="http://www.w3.org/1999/xlink" x="0px" y="0px"
	 width="48px" height="48px" viewBox="0 0 48 48" enable-background="new 0 0 48 48" xml:space="preserve">
<g id="surface1">
	<path fill="#3CD860" d="M24,47.5C11.102,47.5,0.5,36.898,0.5,24S11.102,0.5,24,0.5S47.5,11,47.5,24
		C47.5,36.898,36.898,47.5,24,47.5z M24,3.199C12.602,3.199,3.199,12.602,3.199,24S12.5,44.801,24,44.801
		c11.398,0,20.801-9.301,20.801-20.801C44.801,12.602,35.398,3.199,24,3.199z"/>
	<path fill="#3CD860" d="M19.102,32.898c-0.301,0-0.703-0.098-1-0.398l-5.801-5.801c-0.5-0.5-0.5-1.398,0-1.898s1.398-0.5,1.898,0
		l4.902,4.898l14.297-14.301c0.5-0.5,1.402-0.5,1.902,0s0.5,1.402,0,1.902L20,32.602C19.801,32.699,19.398,32.898,19.102,32.898z"/>
</g>
</svg>
