<?xml version="1.0" encoding="UTF-8"?>
<svg xmlns="http://www.w3.org/2000/svg" xmlns:xlink="http://www.w3.org/1999/xlink" width="48pt" height="48pt" viewBox="0 0 48 48" version="1.1">
<g id="surface1">
<path style=" stroke:none;fill-rule:nonzero;fill:rgb(100%,100%,100%);fill-opacity:1;" d="M 45.699219 11.5 L 2.300781 11.5 C 1.199219 11.5 0.300781 10.601562 0.300781 9.5 C 0.300781 8.398438 1.199219 7.5 2.300781 7.5 L 45.699219 7.5 C 46.800781 7.5 47.699219 8.398438 47.699219 9.5 C 47.699219 10.601562 46.800781 11.5 45.699219 11.5 Z M 45.699219 11.5 "/>
<path style=" stroke:none;fill-rule:nonzero;fill:rgb(100%,100%,100%);fill-opacity:1;" d="M 45.699219 26 L 2.300781 26 C 1.199219 26 0.300781 25.101562 0.300781 24 C 0.300781 22.898438 1.199219 22 2.300781 22 L 45.699219 22 C 46.800781 22 47.699219 22.898438 47.699219 24 C 47.699219 25.101562 46.800781 26 45.699219 26 Z M 45.699219 26 "/>
<path style=" stroke:none;fill-rule:nonzero;fill:rgb(100%,100%,100%);fill-opacity:1;" d="M 45.699219 40.5 L 2.300781 40.5 C 1.199219 40.5 0.300781 39.601562 0.300781 38.5 C 0.300781 37.398438 1.199219 36.5 2.300781 36.5 L 45.699219 36.5 C 46.800781 36.5 47.699219 37.398438 47.699219 38.5 C 47.699219 39.601562 46.800781 40.5 45.699219 40.5 Z M 45.699219 40.5 "/>
</g>
</svg>
